# xmcd
# 
# Track frame offsets:
#     150
#     12898
#     26594
#     38198
#     48622
#     62270
#     80084
#     92415
#     103074
#     113421
#     126547
#     138588
#     151338
#     165037
#     176481
#     189572
#     200563
#     213228
#     226396
#     238927
# 
# Disc length: 3364
# 
# Revision: 0
# Processed by: cddbd v1.5.2PL0 Copyright (c) Steve Scherf et al.
# Submitted via: BonkEnc v1.0.6
# 
DISCID=070d2214
DTITLE=B.B. King - Can't kick the blues
DYEAR=0
DGENRE=Blues
TTITLE0=Every day I have the blues
TTITLE1=The woman I love
TTITLE2=Early in the morning
TTITLE3=Bad luck soul
TTITLE4=Three o'clock blues
TTITLE5=Hold that train
TTITLE6=Sugar mama
TTITLE7=Treat me right
TTITLE8=That ain't the way to do it
TTITLE9=Sweet thing
TTITLE10=The fool
TTITLE11=se love me
TTITLE12=You upset me baby
TTITLE13=Please accept my love
TTITLE14=you've been an angel
TTITLE15=Let's do the boogie
TTITLE16=What can I do
TTITLE17=Tomorrow is another day
TTITLE18=Why do things happen to me
TTITLE19=Troubles, troubles,troubles
EXTD=
EXTT0=
EXTT1=
EXTT2=
EXTT3=
EXTT4=
EXTT5=
EXTT6=
EXTT7=
EXTT8=
EXTT9=
EXTT10=
EXTT11=
EXTT12=
EXTT13=
EXTT14=
EXTT15=
EXTT16=
EXTT17=
EXTT18=
EXTT19=
PLAYORDER=
